<svg xmlns="http://www.w3.org/2000/svg" viewBox="0 0 108 108" width="108" height="108">
  <g transform="translate(54 54) scale(0.9) translate(-54 -54.5)" fill="#000" fill-rule="evenodd">
    <!-- arms + top bay as one silhouette, LED slot knocked out -->
    <path d="M32.2 31 H43.2 L54 45.5 L64.8 31 H75.8 L64 50 V60.4 A2.6 2.6 0 0 1 61.4 63 H46.6 A2.6 2.6 0 0 1 44 60.4 V50 Z M55.7 55.3 H60.3 A1.2 1.2 0 0 1 60.3 57.7 H55.7 A1.2 1.2 0 0 1 55.7 55.3 Z"/>
    <path d="M46.6 66 H61.4 A2.6 2.6 0 0 1 64 68.6 V75.4 A2.6 2.6 0 0 1 61.4 78 H46.6 A2.6 2.6 0 0 1 44 75.4 V68.6 A2.6 2.6 0 0 1 46.6 66 Z M55.7 70.8 H60.3 A1.2 1.2 0 0 1 60.3 73.2 H55.7 A1.2 1.2 0 0 1 55.7 70.8 Z"/>
  </g>
</svg>
